<?xml version="1.0" encoding="utf-8" standalone="no"?>
<!DOCTYPE svg PUBLIC "-//W3C//DTD SVG 1.1//EN"
  "http://www.w3.org/Graphics/SVG/1.1/DTD/svg11.dtd">
<svg xmlns:xlink="http://www.w3.org/1999/xlink" width="630.9504pt" height="266.875422pt" viewBox="0 0 630.9504 266.875422" xmlns="http://www.w3.org/2000/svg" version="1.1">
 <metadata>
  <rdf:RDF xmlns:dc="http://purl.org/dc/elements/1.1/" xmlns:cc="http://creativecommons.org/ns#" xmlns:rdf="http://www.w3.org/1999/02/22-rdf-syntax-ns#">
   <cc:Work>
    <dc:type rdf:resource="http://purl.org/dc/dcmitype/StillImage"/>
    <dc:date>2026-07-26T04:45:42.144979</dc:date>
    <dc:format>image/svg+xml</dc:format>
    <dc:creator>
     <cc:Agent>
      <dc:title>Matplotlib v3.11.1, https://matplotlib.org/</dc:title>
     </cc:Agent>
    </dc:creator>
   </cc:Work>
  </rdf:RDF>
 </metadata>
 <defs>
  <style type="text/css">*{stroke-linejoin: round; stroke-linecap: butt}</style>
 </defs>
 <g id="figure_1">
  <g id="patch_1">
   <path d="M 0 266.875422 
L 630.9504 266.875422 
L 630.9504 0 
L 0 0 
z
" style="fill: #ffffff"/>
  </g>
  <g id="axes_1">
   <g id="patch_2">
    <path d="M 88.0704 228.168 
L 331.561309 228.168 
L 331.561309 45.216 
L 88.0704 45.216 
z
" style="fill: #ffffff"/>
   </g>
   <g id="matplotlib.axis_1">
    <g id="xtick_1">
     <g id="line2d_1">
      <defs>
       <path id="md484ed8ca8" d="M 0 0 
L 0 3.5 
" style="stroke: #6e6e73; stroke-width: 0.8"/>
      </defs>
      <g>
       <use xlink:href="#md484ed8ca8" x="99.138169" y="228.168" style="fill: #6e6e73; stroke: #6e6e73; stroke-width: 0.8"/>
      </g>
     </g>
     <g id="text_1">
      <!-- 0.0 -->
      <g style="fill: #6e6e73" transform="translate(92.776997 242.476105) scale(0.09 -0.09)">
       <defs>
        <path id="MicrosoftYaHei-16" d="M 284 2325 
Q 284 3606 709 4264 
Q 1134 4922 1941 4922 
Q 3478 4922 3478 2441 
Q 3478 1216 3045 567 
Q 2613 -81 1831 -81 
Q 1094 -81 689 534 
Q 284 1150 284 2325 
z
M 909 2353 
Q 909 425 1888 425 
Q 2850 425 2850 2384 
Q 2850 4413 1906 4413 
Q 909 4413 909 2353 
z
" transform="scale(0.015625)"/>
        <path id="MicrosoftYaHei-14" d="M 372 322 
Q 372 491 487 606 
Q 603 722 775 722 
Q 950 722 1065 605 
Q 1181 488 1181 322 
Q 1181 159 1065 42 
Q 950 -75 772 -75 
Q 600 -75 486 42 
Q 372 159 372 322 
z
" transform="scale(0.015625)"/>
       </defs>
       <use xlink:href="#MicrosoftYaHei-16"/>
       <use xlink:href="#MicrosoftYaHei-14" transform="translate(58.640625 0)"/>
       <use xlink:href="#MicrosoftYaHei-16" transform="translate(82.71875 0)"/>
      </g>
     </g>
    </g>
    <g id="xtick_2">
     <g id="line2d_2">
      <g>
       <use xlink:href="#md484ed8ca8" x="143.453558" y="228.168" style="fill: #6e6e73; stroke: #6e6e73; stroke-width: 0.8"/>
      </g>
     </g>
     <g id="text_2">
      <!-- 0.2 -->
      <g style="fill: #6e6e73" transform="translate(137.092386 242.476105) scale(0.09 -0.09)">
       <defs>
        <path id="MicrosoftYaHei-18" d="M 2666 3572 
Q 2666 3963 2419 4186 
Q 2172 4409 1747 4409 
Q 1447 4409 1140 4256 
Q 834 4103 569 3819 
L 569 4413 
Q 806 4659 1107 4790 
Q 1409 4922 1816 4922 
Q 2472 4922 2872 4570 
Q 3272 4219 3272 3619 
Q 3272 3084 3026 2693 
Q 2781 2303 2188 1894 
Q 1581 1475 1376 1294 
Q 1172 1113 1090 947 
Q 1009 781 1009 544 
L 3416 544 
L 3416 0 
L 372 0 
L 372 241 
Q 372 659 486 951 
Q 600 1244 862 1520 
Q 1125 1797 1681 2184 
Q 2250 2584 2458 2886 
Q 2666 3188 2666 3572 
z
" transform="scale(0.015625)"/>
       </defs>
       <use xlink:href="#MicrosoftYaHei-16"/>
       <use xlink:href="#MicrosoftYaHei-14" transform="translate(58.640625 0)"/>
       <use xlink:href="#MicrosoftYaHei-18" transform="translate(82.71875 0)"/>
      </g>
     </g>
    </g>
    <g id="xtick_3">
     <g id="line2d_3">
      <g>
       <use xlink:href="#md484ed8ca8" x="187.768948" y="228.168" style="fill: #6e6e73; stroke: #6e6e73; stroke-width: 0.8"/>
      </g>
     </g>
     <g id="text_3">
      <!-- 0.4 -->
      <g style="fill: #6e6e73" transform="translate(181.407776 242.476105) scale(0.09 -0.09)">
       <defs>
        <path id="MicrosoftYaHei-1a" d="M 2906 4841 
L 2906 1644 
L 3631 1644 
L 3631 1138 
L 2906 1138 
L 2906 0 
L 2313 0 
L 2313 1138 
L 53 1138 
L 53 1616 
Q 656 2294 1265 3178 
Q 1875 4063 2272 4841 
L 2906 4841 
z
M 741 1644 
L 2313 1644 
L 2313 3950 
Q 1988 3366 1616 2817 
Q 1244 2269 741 1644 
z
" transform="scale(0.015625)"/>
       </defs>
       <use xlink:href="#MicrosoftYaHei-16"/>
       <use xlink:href="#MicrosoftYaHei-14" transform="translate(58.640625 0)"/>
       <use xlink:href="#MicrosoftYaHei-1a" transform="translate(82.71875 0)"/>
      </g>
     </g>
    </g>
    <g id="xtick_4">
     <g id="line2d_4">
      <g>
       <use xlink:href="#md484ed8ca8" x="232.084338" y="228.168" style="fill: #6e6e73; stroke: #6e6e73; stroke-width: 0.8"/>
      </g>
     </g>
     <g id="text_4">
      <!-- 0.6 -->
      <g style="fill: #6e6e73" transform="translate(225.723166 242.476105) scale(0.09 -0.09)">
       <defs>
        <path id="MicrosoftYaHei-1c" d="M 3181 4219 
Q 2803 4413 2391 4413 
Q 1763 4413 1381 3866 
Q 1000 3319 994 2372 
L 1009 2372 
Q 1353 3038 2106 3038 
Q 2734 3038 3109 2628 
Q 3484 2219 3484 1541 
Q 3484 831 3051 375 
Q 2619 -81 1947 -81 
Q 1209 -81 789 495 
Q 369 1072 369 2131 
Q 369 3413 920 4167 
Q 1472 4922 2372 4922 
Q 2888 4922 3181 4781 
L 3181 4219 
z
M 1031 1584 
Q 1031 1106 1286 765 
Q 1541 425 1963 425 
Q 2363 425 2613 719 
Q 2863 1013 2863 1475 
Q 2863 1975 2627 2253 
Q 2391 2531 1956 2531 
Q 1544 2531 1287 2250 
Q 1031 1969 1031 1584 
z
" transform="scale(0.015625)"/>
       </defs>
       <use xlink:href="#MicrosoftYaHei-16"/>
       <use xlink:href="#MicrosoftYaHei-14" transform="translate(58.640625 0)"/>
       <use xlink:href="#MicrosoftYaHei-1c" transform="translate(82.71875 0)"/>
      </g>
     </g>
    </g>
    <g id="xtick_5">
     <g id="line2d_5">
      <g>
       <use xlink:href="#md484ed8ca8" x="276.399728" y="228.168" style="fill: #6e6e73; stroke: #6e6e73; stroke-width: 0.8"/>
      </g>
     </g>
     <g id="text_5">
      <!-- 0.8 -->
      <g style="fill: #6e6e73" transform="translate(270.038556 242.476105) scale(0.09 -0.09)">
       <defs>
        <path id="MicrosoftYaHei-1e" d="M 306 1350 
Q 306 1769 556 2122 
Q 806 2475 1200 2625 
Q 884 2803 700 3081 
Q 516 3359 516 3684 
Q 516 4028 692 4312 
Q 869 4597 1183 4759 
Q 1497 4922 1875 4922 
Q 2256 4922 2572 4761 
Q 2888 4600 3063 4315 
Q 3238 4031 3238 3684 
Q 3238 3366 3058 3086 
Q 2878 2806 2559 2625 
Q 2953 2472 3200 2119 
Q 3447 1766 3447 1350 
Q 3447 938 3250 611 
Q 3053 284 2690 103 
Q 2328 -78 1875 -78 
Q 1425 -78 1065 103 
Q 706 284 506 612 
Q 306 941 306 1350 
z
M 906 1378 
Q 906 947 1172 687 
Q 1438 428 1878 428 
Q 2309 428 2582 692 
Q 2856 956 2856 1378 
Q 2856 1778 2579 2051 
Q 2303 2325 1878 2325 
Q 1456 2325 1181 2058 
Q 906 1791 906 1378 
z
M 1081 3634 
Q 1081 3309 1312 3076 
Q 1544 2844 1878 2844 
Q 2206 2844 2445 3078 
Q 2684 3313 2684 3634 
Q 2684 3963 2454 4191 
Q 2225 4419 1878 4419 
Q 1534 4419 1307 4195 
Q 1081 3972 1081 3634 
z
" transform="scale(0.015625)"/>
       </defs>
       <use xlink:href="#MicrosoftYaHei-16"/>
       <use xlink:href="#MicrosoftYaHei-14" transform="translate(58.640625 0)"/>
       <use xlink:href="#MicrosoftYaHei-1e" transform="translate(82.71875 0)"/>
      </g>
     </g>
    </g>
    <g id="xtick_6">
     <g id="line2d_6">
      <g>
       <use xlink:href="#md484ed8ca8" x="320.715117" y="228.168" style="fill: #6e6e73; stroke: #6e6e73; stroke-width: 0.8"/>
      </g>
     </g>
     <g id="text_6">
      <!-- 1.0 -->
      <g style="fill: #6e6e73" transform="translate(314.353946 242.476105) scale(0.09 -0.09)">
       <defs>
        <path id="MicrosoftYaHei-17" d="M 1781 0 
L 1781 4141 
Q 1638 3997 1295 3819 
Q 953 3641 663 3569 
L 663 4169 
Q 1047 4275 1484 4508 
Q 1922 4741 2156 4947 
L 2388 4947 
L 2388 0 
L 1781 0 
z
" transform="scale(0.015625)"/>
       </defs>
       <use xlink:href="#MicrosoftYaHei-17"/>
       <use xlink:href="#MicrosoftYaHei-14" transform="translate(58.640625 0)"/>
       <use xlink:href="#MicrosoftYaHei-16" transform="translate(82.71875 0)"/>
      </g>
     </g>
    </g>
    <g id="text_7">
     <!-- 下注比例 f -->
     <g style="fill: #1d1d1f" transform="translate(186.602573 257.141242) scale(0.1 -0.1)">
      <defs>
       <path id="MicrosoftYaHei-408" d="M 163 4803 
L 6238 4803 
L 6238 4291 
L 3200 4291 
L 3200 2928 
L 3488 3328 
Q 4919 2484 5888 1809 
L 5519 1303 
Q 4550 2047 3200 2872 
L 3200 -797 
L 2631 -797 
L 2631 4291 
L 163 4291 
L 163 4803 
z
" transform="scale(0.015625)"/>
       <path id="MicrosoftYaHei-868" d="M 1625 16 
L 3725 16 
L 3725 1791 
L 2100 1791 
L 2100 2266 
L 3725 2266 
L 3725 3778 
L 1925 3778 
L 1925 4253 
L 3919 4253 
Q 3625 4719 3319 5103 
L 3731 5366 
Q 4150 4878 4394 4503 
L 4003 4253 
L 6100 4253 
L 6100 3778 
L 4250 3778 
L 4250 2266 
L 5875 2266 
L 5875 1791 
L 4250 1791 
L 4250 16 
L 6275 16 
L 6275 -459 
L 1625 -459 
L 1625 16 
z
M 956 1816 
Q 1213 1703 1450 1609 
Q 1106 509 731 -791 
L 194 -603 
Q 588 466 956 1816 
z
M 631 5234 
Q 1238 4778 1713 4322 
Q 1500 4109 1338 3941 
Q 1000 4297 313 4891 
L 631 5234 
z
M 394 3616 
Q 844 3303 1500 2766 
Q 1269 2503 1131 2359 
Q 475 2959 81 3259 
L 394 3616 
z
" transform="scale(0.015625)"/>
       <path id="MicrosoftYaHei-841" d="M 3225 5316 
L 3744 5316 
L 3744 2672 
Q 4959 3550 5744 4509 
L 6188 4178 
Q 5175 3063 3744 2056 
L 3744 247 
Q 3744 -166 4106 -166 
L 5175 -166 
Q 5588 -166 5650 203 
Q 5725 678 5763 1247 
Q 6025 1147 6300 1066 
Q 6244 484 6150 22 
Q 6019 -622 5319 -622 
L 3944 -622 
Q 3225 -622 3225 159 
L 3225 5316 
z
M 1063 5153 
L 1063 3278 
L 2825 3278 
L 2825 2809 
L 1063 2809 
L 1063 153 
Q 1713 428 2763 928 
Q 2763 634 2788 366 
Q 1869 -3 1231 -328 
Q 956 -472 725 -672 
L 344 -184 
Q 544 -34 544 272 
L 544 5153 
L 1063 5153 
z
" transform="scale(0.015625)"/>
       <path id="MicrosoftYaHei-486" d="M 2381 1841 
L 2631 2191 
Q 2916 1997 3247 1738 
Q 3488 2378 3581 3128 
L 2703 3128 
Q 2350 1984 1831 1291 
Q 1700 1491 1531 1678 
Q 2238 2694 2578 4522 
L 1900 4522 
L 1900 4959 
L 4319 4959 
L 4319 4522 
L 3044 4522 
Q 2947 4009 2828 3559 
L 4044 3559 
L 4044 3128 
Q 3788 666 2038 -822 
Q 1900 -634 1694 -416 
Q 2578 297 3063 1303 
Q 2753 1556 2381 1841 
z
M 88 2291 
Q 894 3659 1281 5322 
L 1744 5234 
Q 1578 4534 1325 3853 
L 1325 -809 
L 900 -809 
L 900 2847 
Q 625 2275 288 1716 
Q 213 1966 88 2291 
z
M 5575 5303 
L 6031 5303 
L 6031 84 
Q 6031 -391 5881 -566 
Q 5750 -728 5356 -734 
Q 5088 -741 4488 -722 
Q 4463 -466 4400 -203 
Q 4881 -253 5188 -253 
Q 5431 -259 5500 -166 
Q 5575 -84 5575 234 
L 5575 5303 
z
M 4913 653 
L 4469 653 
L 4469 4322 
L 4913 4322 
L 4913 653 
z
" transform="scale(0.015625)"/>
       <path id="MicrosoftYaHei-3" transform="scale(0.015625)"/>
       <path id="MicrosoftYaHei-4c" d="M 2319 4594 
Q 2147 4684 1947 4684 
Q 1372 4684 1372 3972 
L 1372 3456 
L 2181 3456 
L 2181 2950 
L 1372 2950 
L 1372 0 
L 766 0 
L 766 2950 
L 175 2950 
L 175 3456 
L 766 3456 
L 766 4000 
Q 766 4556 1086 4873 
Q 1406 5191 1900 5191 
Q 2163 5191 2319 5131 
L 2319 4594 
z
" transform="scale(0.015625)"/>
      </defs>
      <use xlink:href="#MicrosoftYaHei-408"/>
      <use xlink:href="#MicrosoftYaHei-868" transform="translate(100 0)"/>
      <use xlink:href="#MicrosoftYaHei-841" transform="translate(200 0)"/>
      <use xlink:href="#MicrosoftYaHei-486" transform="translate(300 0)"/>
      <use xlink:href="#MicrosoftYaHei-3" transform="translate(400 0)"/>
      <use xlink:href="#MicrosoftYaHei-4c" transform="translate(429.59375 0)"/>
     </g>
    </g>
   </g>
   <g id="matplotlib.axis_2">
    <g id="ytick_1">
     <g id="line2d_7">
      <defs>
       <path id="m0377143ae2" d="M 0 0 
L -3.5 0 
" style="stroke: #6e6e73; stroke-width: 0.8"/>
      </defs>
      <g>
       <use xlink:href="#m0377143ae2" x="88.0704" y="219.852" style="fill: #6e6e73; stroke: #6e6e73; stroke-width: 0.8"/>
      </g>
     </g>
     <g id="text_8">
      <!-- 0.0 -->
      <g style="fill: #6e6e73" transform="translate(68.348056 223.506053) scale(0.09 -0.09)">
       <use xlink:href="#MicrosoftYaHei-16"/>
       <use xlink:href="#MicrosoftYaHei-14" transform="translate(58.640625 0)"/>
       <use xlink:href="#MicrosoftYaHei-16" transform="translate(82.71875 0)"/>
      </g>
     </g>
    </g>
    <g id="ytick_2">
     <g id="line2d_8">
      <g>
       <use xlink:href="#m0377143ae2" x="88.0704" y="197.731728" style="fill: #6e6e73; stroke: #6e6e73; stroke-width: 0.8"/>
      </g>
     </g>
     <g id="text_9">
      <!-- 0.2 -->
      <g style="fill: #6e6e73" transform="translate(68.348056 201.385781) scale(0.09 -0.09)">
       <use xlink:href="#MicrosoftYaHei-16"/>
       <use xlink:href="#MicrosoftYaHei-14" transform="translate(58.640625 0)"/>
       <use xlink:href="#MicrosoftYaHei-18" transform="translate(82.71875 0)"/>
      </g>
     </g>
    </g>
    <g id="ytick_3">
     <g id="line2d_9">
      <g>
       <use xlink:href="#m0377143ae2" x="88.0704" y="175.611457" style="fill: #6e6e73; stroke: #6e6e73; stroke-width: 0.8"/>
      </g>
     </g>
     <g id="text_10">
      <!-- 0.4 -->
      <g style="fill: #6e6e73" transform="translate(68.348056 179.265509) scale(0.09 -0.09)">
       <use xlink:href="#MicrosoftYaHei-16"/>
       <use xlink:href="#MicrosoftYaHei-14" transform="translate(58.640625 0)"/>
       <use xlink:href="#MicrosoftYaHei-1a" transform="translate(82.71875 0)"/>
      </g>
     </g>
    </g>
    <g id="ytick_4">
     <g id="line2d_10">
      <g>
       <use xlink:href="#m0377143ae2" x="88.0704" y="153.491185" style="fill: #6e6e73; stroke: #6e6e73; stroke-width: 0.8"/>
      </g>
     </g>
     <g id="text_11">
      <!-- 0.6 -->
      <g style="fill: #6e6e73" transform="translate(68.348056 157.145238) scale(0.09 -0.09)">
       <use xlink:href="#MicrosoftYaHei-16"/>
       <use xlink:href="#MicrosoftYaHei-14" transform="translate(58.640625 0)"/>
       <use xlink:href="#MicrosoftYaHei-1c" transform="translate(82.71875 0)"/>
      </g>
     </g>
    </g>
    <g id="ytick_5">
     <g id="line2d_11">
      <g>
       <use xlink:href="#m0377143ae2" x="88.0704" y="131.370913" style="fill: #6e6e73; stroke: #6e6e73; stroke-width: 0.8"/>
      </g>
     </g>
     <g id="text_12">
      <!-- 0.8 -->
      <g style="fill: #6e6e73" transform="translate(68.348056 135.024966) scale(0.09 -0.09)">
       <use xlink:href="#MicrosoftYaHei-16"/>
       <use xlink:href="#MicrosoftYaHei-14" transform="translate(58.640625 0)"/>
       <use xlink:href="#MicrosoftYaHei-1e" transform="translate(82.71875 0)"/>
      </g>
     </g>
    </g>
    <g id="ytick_6">
     <g id="line2d_12">
      <g>
       <use xlink:href="#m0377143ae2" x="88.0704" y="109.250642" style="fill: #6e6e73; stroke: #6e6e73; stroke-width: 0.8"/>
      </g>
     </g>
     <g id="text_13">
      <!-- 1.0 -->
      <g style="fill: #6e6e73" transform="translate(68.348056 112.904694) scale(0.09 -0.09)">
       <use xlink:href="#MicrosoftYaHei-17"/>
       <use xlink:href="#MicrosoftYaHei-14" transform="translate(58.640625 0)"/>
       <use xlink:href="#MicrosoftYaHei-16" transform="translate(82.71875 0)"/>
      </g>
     </g>
    </g>
    <g id="ytick_7">
     <g id="line2d_13">
      <g>
       <use xlink:href="#m0377143ae2" x="88.0704" y="87.13037" style="fill: #6e6e73; stroke: #6e6e73; stroke-width: 0.8"/>
      </g>
     </g>
     <g id="text_14">
      <!-- 1.2 -->
      <g style="fill: #6e6e73" transform="translate(68.348056 90.784423) scale(0.09 -0.09)">
       <use xlink:href="#MicrosoftYaHei-17"/>
       <use xlink:href="#MicrosoftYaHei-14" transform="translate(58.640625 0)"/>
       <use xlink:href="#MicrosoftYaHei-18" transform="translate(82.71875 0)"/>
      </g>
     </g>
    </g>
    <g id="ytick_8">
     <g id="line2d_14">
      <g>
       <use xlink:href="#m0377143ae2" x="88.0704" y="65.010098" style="fill: #6e6e73; stroke: #6e6e73; stroke-width: 0.8"/>
      </g>
     </g>
     <g id="text_15">
      <!-- 1.4 -->
      <g style="fill: #6e6e73" transform="translate(68.348056 68.664151) scale(0.09 -0.09)">
       <use xlink:href="#MicrosoftYaHei-17"/>
       <use xlink:href="#MicrosoftYaHei-14" transform="translate(58.640625 0)"/>
       <use xlink:href="#MicrosoftYaHei-1a" transform="translate(82.71875 0)"/>
      </g>
     </g>
    </g>
    <g id="text_16">
     <!-- E[log(1 + f·R)] -->
     <g style="fill: #1d1d1f" transform="translate(61.804306 169.631844) rotate(-90) scale(0.1 -0.1)">
      <defs>
       <path id="MicrosoftYaHei-2b" d="M 3228 0 
L 625 0 
L 625 4841 
L 3119 4841 
L 3119 4284 
L 1250 4284 
L 1250 2734 
L 2981 2734 
L 2981 2181 
L 1250 2181 
L 1250 553 
L 3228 553 
L 3228 0 
z
" transform="scale(0.015625)"/>
       <path id="MicrosoftYaHei-41" d="M 1959 -1100 
L 681 -1100 
L 681 4841 
L 1959 4841 
L 1959 4406 
L 1219 4406 
L 1219 -669 
L 1959 -669 
L 1959 -1100 
z
" transform="scale(0.015625)"/>
       <path id="MicrosoftYaHei-52" d="M 544 0 
L 544 5116 
L 1156 5116 
L 1156 0 
L 544 0 
z
" transform="scale(0.015625)"/>
       <path id="MicrosoftYaHei-55" d="M 316 1691 
Q 316 2547 794 3042 
Q 1272 3538 2091 3538 
Q 2869 3538 3311 3061 
Q 3753 2584 3753 1744 
Q 3753 925 3281 422 
Q 2809 -81 2016 -81 
Q 1241 -81 778 406 
Q 316 894 316 1691 
z
M 941 1709 
Q 941 1113 1242 769 
Q 1544 425 2053 425 
Q 2578 425 2853 761 
Q 3128 1097 3128 1725 
Q 3128 2356 2853 2693 
Q 2578 3031 2053 3031 
Q 1538 3031 1239 2678 
Q 941 2325 941 1709 
z
" transform="scale(0.015625)"/>
       <path id="MicrosoftYaHei-4d" d="M 3547 291 
Q 3547 -1628 1684 -1628 
Q 1041 -1628 566 -1388 
L 566 -797 
Q 1144 -1119 1675 -1119 
Q 2934 -1119 2934 206 
L 2934 572 
L 2922 572 
Q 2528 -81 1747 -81 
Q 1097 -81 706 384 
Q 316 850 316 1619 
Q 316 2503 747 3020 
Q 1178 3538 1897 3538 
Q 2588 3538 2922 2988 
L 2934 2988 
L 2934 3456 
L 3547 3456 
L 3547 291 
z
M 2934 2056 
Q 2938 2456 2666 2743 
Q 2394 3031 1997 3031 
Q 1497 3031 1219 2664 
Q 941 2297 941 1656 
Q 941 1106 1209 765 
Q 1478 425 1922 425 
Q 2369 425 2653 750 
Q 2938 1075 2934 1575 
L 2934 2056 
z
" transform="scale(0.015625)"/>
       <path id="MicrosoftYaHei-e" d="M 1531 -1100 
Q 478 100 478 1847 
Q 478 3594 1531 4841 
L 2072 4841 
Q 1016 3544 1016 1853 
Q 1016 166 2066 -1100 
L 1531 -1100 
z
" transform="scale(0.015625)"/>
       <path id="MicrosoftYaHei-11" d="M 3972 1772 
L 2613 1772 
L 2613 419 
L 2141 419 
L 2141 1772 
L 788 1772 
L 788 2250 
L 2141 2250 
L 2141 3603 
L 2613 3603 
L 2613 2250 
L 3972 2250 
L 3972 1772 
z
" transform="scale(0.015625)"/>
       <path id="MicrosoftYaHei-78" d="M 372 2113 
Q 372 2278 490 2395 
Q 609 2513 775 2513 
Q 941 2513 1061 2397 
Q 1181 2281 1181 2113 
Q 1181 1950 1064 1831 
Q 947 1713 772 1713 
Q 600 1713 486 1831 
Q 372 1950 372 2113 
z
" transform="scale(0.015625)"/>
       <path id="MicrosoftYaHei-38" d="M 4159 0 
L 3422 0 
L 2619 1344 
Q 2378 1747 2178 1892 
Q 1978 2038 1700 2038 
L 1250 2038 
L 1250 0 
L 625 0 
L 625 4841 
L 2100 4841 
Q 2806 4841 3206 4500 
Q 3606 4159 3606 3547 
Q 3606 2541 2531 2241 
L 2531 2225 
Q 2731 2141 2876 1984 
Q 3022 1828 3253 1450 
L 4159 0 
z
M 1250 4294 
L 1250 2584 
L 1988 2584 
Q 2416 2584 2683 2834 
Q 2950 3084 2950 3491 
Q 2950 3869 2706 4081 
Q 2463 4294 1997 4294 
L 1250 4294 
z
" transform="scale(0.015625)"/>
       <path id="MicrosoftYaHei-f" d="M 78 -1100 
Q 1131 163 1131 1853 
Q 1131 3547 72 4841 
L 616 4841 
Q 1672 3603 1672 1847 
Q 1672 91 616 -1100 
L 78 -1100 
z
" transform="scale(0.015625)"/>
       <path id="MicrosoftYaHei-43" d="M 1466 -1100 
L 184 -1100 
L 184 -669 
L 928 -669 
L 928 4406 
L 184 4406 
L 184 4841 
L 1466 4841 
L 1466 -1100 
z
" transform="scale(0.015625)"/>
      </defs>
      <use xlink:href="#MicrosoftYaHei-2b"/>
      <use xlink:href="#MicrosoftYaHei-41" transform="translate(54.984375 0)"/>
      <use xlink:href="#MicrosoftYaHei-52" transform="translate(88.390625 0)"/>
      <use xlink:href="#MicrosoftYaHei-55" transform="translate(115 0)"/>
      <use xlink:href="#MicrosoftYaHei-4d" transform="translate(178.578125 0)"/>
      <use xlink:href="#MicrosoftYaHei-e" transform="translate(242.546875 0)"/>
      <use xlink:href="#MicrosoftYaHei-17" transform="translate(275.953125 0)"/>
      <use xlink:href="#MicrosoftYaHei-3" transform="translate(334.59375 0)"/>
      <use xlink:href="#MicrosoftYaHei-11" transform="translate(364.1875 0)"/>
      <use xlink:href="#MicrosoftYaHei-3" transform="translate(438.359375 0)"/>
      <use xlink:href="#MicrosoftYaHei-4c" transform="translate(467.953125 0)"/>
      <use xlink:href="#MicrosoftYaHei-78" transform="translate(502.625 0)"/>
      <use xlink:href="#MicrosoftYaHei-38" transform="translate(526.703125 0)"/>
      <use xlink:href="#MicrosoftYaHei-f" transform="translate(591.984375 0)"/>
      <use xlink:href="#MicrosoftYaHei-43" transform="translate(625.390625 0)"/>
     </g>
    </g>
   </g>
   <g id="line2d_15">
    <path d="M 99.138169 219.852 
L 100.997199 206.185322 
L 102.858446 198.159866 
L 104.717476 191.838888 
L 106.578723 186.483238 
L 108.437753 181.774939 
L 110.299 177.541008 
L 112.15803 173.674384 
L 114.019276 170.103177 
L 115.878307 166.77662 
L 117.739553 163.656777 
L 119.598584 160.71467 
L 121.45983 157.927516 
L 123.318861 155.277065 
L 125.180107 152.748165 
L 127.039138 150.328539 
L 128.900384 148.00768 
L 130.759415 145.77663 
L 132.620661 143.627756 
L 134.479692 141.554423 
L 136.340938 139.550769 
L 138.199969 137.611706 
L 140.061215 135.73281 
L 141.920246 133.909989 
L 143.781492 132.139593 
L 145.640523 130.418414 
L 147.501769 128.743689 
L 149.3608 127.11254 
L 151.222046 125.522645 
L 153.081077 123.971904 
L 154.942323 122.458103 
L 156.801354 120.979584 
L 158.6626 119.534577 
L 160.521631 118.121534 
L 162.382877 116.738907 
L 164.241908 115.385478 
L 166.103154 114.059921 
L 167.962185 112.761018 
L 169.823431 111.487775 
L 171.682462 110.239197 
L 173.543708 109.014287 
L 175.402739 107.81216 
L 177.263985 106.632044 
L 179.123016 105.473052 
L 180.984262 104.334411 
L 182.843293 103.215568 
L 184.704539 102.115748 
L 186.56357 101.034288 
L 188.424816 99.970856 
L 190.283847 98.924567 
L 192.145093 97.89509 
L 194.004123 96.881981 
L 195.86537 95.884578 
L 197.7244 94.902549 
L 199.585647 93.93545 
L 201.444677 92.982841 
L 203.305924 92.044388 
L 205.164954 91.11965 
L 207.026201 90.208406 
L 208.885231 89.310212 
L 210.746478 88.424738 
L 212.605508 87.551651 
L 214.466755 86.69073 
L 216.325785 85.841754 
L 218.187032 85.004391 
L 220.046062 84.17842 
L 221.907309 83.363509 
L 223.766339 82.559437 
L 225.627586 81.766094 
L 227.486616 80.983147 
L 229.347863 80.210485 
L 231.206893 79.447889 
L 233.06814 78.695247 
L 234.92717 77.952227 
L 236.788417 77.218719 
L 238.647447 76.494722 
L 240.508694 75.779795 
L 242.367724 75.074048 
L 244.22897 74.377259 
L 246.088001 73.689208 
L 247.949247 73.010005 
L 249.808278 72.339319 
L 251.669524 71.677038 
L 253.528555 71.023273 
L 255.389801 70.377693 
L 257.248832 69.740408 
L 259.110078 69.111197 
L 260.969109 68.49017 
L 262.830355 67.876996 
L 264.689386 67.271896 
L 266.550632 66.674538 
L 268.409663 66.085144 
L 270.270909 65.503602 
L 272.12994 64.929912 
L 273.991186 64.363965 
L 275.850217 63.805871 
L 277.711463 63.255629 
L 279.570494 62.71324 
L 281.43174 62.178704 
L 283.290771 61.652241 
L 285.152017 61.133742 
L 287.011048 60.623427 
L 288.872294 60.121408 
L 290.731325 59.627683 
L 292.592571 59.142696 
L 294.451602 58.666557 
L 296.312848 58.199599 
L 298.171879 57.742041 
L 300.033125 57.294437 
L 301.892156 56.85723 
L 303.753402 56.431083 
L 305.612433 56.01677 
L 307.473679 55.615398 
L 309.33271 55.228514 
L 311.193956 54.857889 
L 313.052987 54.506619 
L 314.914233 54.179129 
L 316.773264 53.883491 
L 318.63451 53.637845 
L 320.49354 53.532 
" clip-path="url(#p20c3f0c639)" style="fill: none; stroke: #0071e3; stroke-width: 2; stroke-linecap: square"/>
   </g>
   <g id="line2d_16">
    <path d="M 88.0704 219.852 
L 331.561309 219.852 
" clip-path="url(#p20c3f0c639)" style="fill: none; stroke: #d2d2d7; stroke-width: 0.9; stroke-linecap: square"/>
   </g>
   <g id="line2d_17">
    <path d="M 320.227648 228.168 
L 320.227648 45.216 
" clip-path="url(#p20c3f0c639)" style="fill: none; stroke-dasharray: 4.4,3.3; stroke-dashoffset: 0; stroke: #0071e3; stroke-width: 1.1"/>
   </g>
   <g id="patch_3">
    <path d="M 88.0704 228.168 
L 88.0704 45.216 
" style="fill: none; stroke: #d2d2d7; stroke-width: 0.8; stroke-linejoin: miter; stroke-linecap: square"/>
   </g>
   <g id="patch_4">
    <path d="M 88.0704 228.168 
L 331.561309 228.168 
" style="fill: none; stroke: #d2d2d7; stroke-width: 0.8; stroke-linejoin: miter; stroke-linecap: square"/>
   </g>
   <g id="text_17">
    <!-- f* = 1.00 -->
    <g style="fill: #0071e3" transform="translate(95.375127 217.19088) scale(0.1 -0.1)">
     <defs>
      <path id="MicrosoftYaHei-Bold-4c" d="M 2653 4338 
Q 2447 4419 2263 4419 
Q 1744 4419 1744 3844 
L 1744 3456 
L 2531 3456 
L 2531 2703 
L 1744 2703 
L 1744 0 
L 734 0 
L 734 2703 
L 156 2703 
L 156 3456 
L 734 3456 
L 734 3900 
Q 734 4491 1118 4844 
Q 1503 5197 2128 5197 
Q 2447 5197 2653 5131 
L 2653 4338 
z
" transform="scale(0.015625)"/>
      <path id="MicrosoftYaHei-Bold-10" d="M 2884 3572 
L 1959 3441 
L 2619 2716 
L 2031 2313 
L 1559 3175 
L 1091 2313 
L 503 2716 
L 1166 3441 
L 241 3572 
L 469 4225 
L 1322 3866 
L 1184 4841 
L 1938 4841 
L 1800 3866 
L 2650 4225 
L 2884 3572 
z
" transform="scale(0.015625)"/>
      <path id="MicrosoftYaHei-Bold-3" transform="scale(0.015625)"/>
      <path id="MicrosoftYaHei-Bold-23" d="M 4072 2378 
L 797 2378 
L 797 3041 
L 4072 3041 
L 4072 2378 
z
M 4072 916 
L 797 916 
L 797 1578 
L 4072 1578 
L 4072 916 
z
" transform="scale(0.015625)"/>
      <path id="MicrosoftYaHei-Bold-17" d="M 2716 4947 
L 2716 0 
L 1700 0 
L 1700 3809 
Q 1513 3647 1188 3517 
Q 863 3388 591 3356 
L 591 4222 
Q 1447 4472 2072 4947 
L 2716 4947 
z
" transform="scale(0.015625)"/>
      <path id="MicrosoftYaHei-Bold-14" d="M 313 453 
Q 313 688 491 838 
Q 669 988 916 988 
Q 1166 988 1337 834 
Q 1509 681 1509 453 
Q 1509 213 1337 64 
Q 1166 -84 903 -84 
Q 659 -84 486 69 
Q 313 222 313 453 
z
" transform="scale(0.015625)"/>
      <path id="MicrosoftYaHei-Bold-16" d="M 244 2341 
Q 244 3597 706 4259 
Q 1169 4922 2044 4922 
Q 3713 4922 3713 2453 
Q 3713 1238 3259 577 
Q 2806 -84 1950 -84 
Q 244 -84 244 2341 
z
M 1266 2366 
Q 1266 691 1981 691 
Q 2684 691 2684 2416 
Q 2684 4147 2000 4147 
Q 1266 4147 1266 2366 
z
" transform="scale(0.015625)"/>
     </defs>
     <use xlink:href="#MicrosoftYaHei-Bold-4c"/>
     <use xlink:href="#MicrosoftYaHei-Bold-10" transform="translate(42.484375 0)"/>
     <use xlink:href="#MicrosoftYaHei-Bold-3" transform="translate(91.21875 0)"/>
     <use xlink:href="#MicrosoftYaHei-Bold-23" transform="translate(121 0)"/>
     <use xlink:href="#MicrosoftYaHei-Bold-3" transform="translate(197.125 0)"/>
     <use xlink:href="#MicrosoftYaHei-Bold-17" transform="translate(226.90625 0)"/>
     <use xlink:href="#MicrosoftYaHei-Bold-14" transform="translate(288.578125 0)"/>
     <use xlink:href="#MicrosoftYaHei-Bold-16" transform="translate(317.140625 0)"/>
     <use xlink:href="#MicrosoftYaHei-Bold-16" transform="translate(378.8125 0)"/>
    </g>
   </g>
   <g id="text_18">
    <!-- 现金口径 -->
    <g style="fill: #1d1d1f" transform="translate(88.0704 35.216) scale(0.11 -0.11)">
     <defs>
      <path id="MicrosoftYaHei-Bold-8bb" d="M 2475 1172 
L 2475 5103 
L 5900 5103 
L 5900 1222 
L 5075 1222 
L 5075 4284 
L 3300 4284 
L 3300 1172 
L 2475 1172 
z
M 338 -553 
L 75 359 
L 813 619 
L 813 2153 
L 206 2153 
L 206 2978 
L 813 2978 
L 813 4191 
L 163 4191 
L 163 5016 
L 2294 5016 
L 2294 4191 
L 1625 4191 
L 1625 2978 
L 2206 2978 
L 2206 2153 
L 1625 2153 
L 1625 931 
Q 1988 1078 2238 1203 
Q 2269 684 2319 309 
Q 1269 -122 338 -553 
z
M 5506 1003 
Q 5988 772 6306 659 
Q 6169 -353 5964 -540 
Q 5759 -728 5481 -728 
L 4819 -728 
Q 4075 -728 4075 -22 
L 4075 800 
Q 3575 -181 2463 -859 
Q 2200 -509 1850 -134 
Q 2972 434 3361 1164 
Q 3750 1894 3744 3903 
L 4588 3903 
Q 4575 2547 4375 1672 
L 4863 1672 
L 4863 278 
Q 4863 3 5128 3 
Q 5334 3 5398 145 
Q 5463 288 5506 1003 
z
" transform="scale(0.015625)"/>
      <path id="MicrosoftYaHei-Bold-b1f" d="M 263 103 
L 1600 103 
Q 1356 428 981 878 
L 1706 1316 
Q 2031 941 2381 484 
L 1775 103 
L 2731 103 
L 2731 1328 
L 763 1328 
L 763 2091 
L 2731 2091 
L 2731 2616 
L 1538 2616 
L 1538 3122 
Q 1081 2828 569 2547 
Q 344 2916 50 3359 
Q 1938 4172 2813 5297 
L 4081 5297 
L 3800 5016 
Q 4769 4003 6350 3491 
Q 6056 3009 5844 2647 
Q 5331 2884 4888 3147 
L 4888 2616 
L 3663 2616 
L 3663 2091 
L 5638 2091 
L 5638 1328 
L 4700 1328 
L 5463 928 
Q 5119 484 4800 103 
L 6150 103 
L 6150 -659 
L 263 -659 
L 263 103 
z
M 3213 4478 
Q 2650 3903 1906 3378 
L 4519 3378 
Q 3763 3878 3213 4478 
z
M 4669 1328 
L 3663 1328 
L 3663 103 
L 4631 103 
L 4031 434 
Q 4375 884 4669 1328 
z
" transform="scale(0.015625)"/>
      <path id="MicrosoftYaHei-Bold-54c" d="M 538 -672 
L 538 4784 
L 5869 4784 
L 5869 -672 
L 4931 -672 
L 4931 -228 
L 1475 -228 
L 1475 -672 
L 538 -672 
z
M 4931 3928 
L 1475 3928 
L 1475 628 
L 4931 628 
L 4931 3928 
z
" transform="scale(0.015625)"/>
      <path id="MicrosoftYaHei-Bold-6ab" d="M 1450 5366 
L 2144 4797 
Q 1400 3816 444 2947 
Q 344 3328 131 3909 
Q 913 4597 1450 5366 
z
M 1588 -784 
L 781 -784 
L 781 1309 
Q 556 1075 331 866 
Q 250 1253 69 1841 
Q 850 2553 1575 3609 
L 2256 3153 
Q 2141 2984 2025 2825 
Q 3756 3381 4744 4259 
L 2325 4259 
L 2325 5009 
L 5788 5009 
L 5788 4272 
Q 5416 3819 4916 3419 
Q 5747 3056 6350 2772 
L 5863 2034 
Q 5006 2519 4209 2922 
Q 3409 2428 2369 2034 
Q 2188 2381 1966 2741 
Q 1775 2484 1588 2244 
L 1588 -784 
z
M 1913 128 
L 3663 128 
L 3663 1216 
L 2225 1216 
L 2225 1966 
L 6000 1966 
L 6000 1216 
L 4556 1216 
L 4556 128 
L 6300 128 
L 6300 -622 
L 1913 -622 
L 1913 128 
z
" transform="scale(0.015625)"/>
     </defs>
     <use xlink:href="#MicrosoftYaHei-Bold-8bb"/>
     <use xlink:href="#MicrosoftYaHei-Bold-b1f" transform="translate(100 0)"/>
     <use xlink:href="#MicrosoftYaHei-Bold-54c" transform="translate(200 0)"/>
     <use xlink:href="#MicrosoftYaHei-Bold-6ab" transform="translate(300 0)"/>
    </g>
   </g>
  </g>
  <g id="axes_2">
   <g id="patch_5">
    <path d="M 380.259491 228.168 
L 623.7504 228.168 
L 623.7504 45.216 
L 380.259491 45.216 
z
" style="fill: #ffffff"/>
   </g>
   <g id="matplotlib.axis_3">
    <g id="xtick_7">
     <g id="line2d_18">
      <g>
       <use xlink:href="#md484ed8ca8" x="391.32726" y="228.168" style="fill: #6e6e73; stroke: #6e6e73; stroke-width: 0.8"/>
      </g>
     </g>
     <g id="text_19">
      <!-- 0.0 -->
      <g style="fill: #6e6e73" transform="translate(384.966088 242.476105) scale(0.09 -0.09)">
       <use xlink:href="#MicrosoftYaHei-16"/>
       <use xlink:href="#MicrosoftYaHei-14" transform="translate(58.640625 0)"/>
       <use xlink:href="#MicrosoftYaHei-16" transform="translate(82.71875 0)"/>
      </g>
     </g>
    </g>
    <g id="xtick_8">
     <g id="line2d_19">
      <g>
       <use xlink:href="#md484ed8ca8" x="435.642649" y="228.168" style="fill: #6e6e73; stroke: #6e6e73; stroke-width: 0.8"/>
      </g>
     </g>
     <g id="text_20">
      <!-- 0.2 -->
      <g style="fill: #6e6e73" transform="translate(429.281477 242.476105) scale(0.09 -0.09)">
       <use xlink:href="#MicrosoftYaHei-16"/>
       <use xlink:href="#MicrosoftYaHei-14" transform="translate(58.640625 0)"/>
       <use xlink:href="#MicrosoftYaHei-18" transform="translate(82.71875 0)"/>
      </g>
     </g>
    </g>
    <g id="xtick_9">
     <g id="line2d_20">
      <g>
       <use xlink:href="#md484ed8ca8" x="479.958039" y="228.168" style="fill: #6e6e73; stroke: #6e6e73; stroke-width: 0.8"/>
      </g>
     </g>
     <g id="text_21">
      <!-- 0.4 -->
      <g style="fill: #6e6e73" transform="translate(473.596867 242.476105) scale(0.09 -0.09)">
       <use xlink:href="#MicrosoftYaHei-16"/>
       <use xlink:href="#MicrosoftYaHei-14" transform="translate(58.640625 0)"/>
       <use xlink:href="#MicrosoftYaHei-1a" transform="translate(82.71875 0)"/>
      </g>
     </g>
    </g>
    <g id="xtick_10">
     <g id="line2d_21">
      <g>
       <use xlink:href="#md484ed8ca8" x="524.273429" y="228.168" style="fill: #6e6e73; stroke: #6e6e73; stroke-width: 0.8"/>
      </g>
     </g>
     <g id="text_22">
      <!-- 0.6 -->
      <g style="fill: #6e6e73" transform="translate(517.912257 242.476105) scale(0.09 -0.09)">
       <use xlink:href="#MicrosoftYaHei-16"/>
       <use xlink:href="#MicrosoftYaHei-14" transform="translate(58.640625 0)"/>
       <use xlink:href="#MicrosoftYaHei-1c" transform="translate(82.71875 0)"/>
      </g>
     </g>
    </g>
    <g id="xtick_11">
     <g id="line2d_22">
      <g>
       <use xlink:href="#md484ed8ca8" x="568.588819" y="228.168" style="fill: #6e6e73; stroke: #6e6e73; stroke-width: 0.8"/>
      </g>
     </g>
     <g id="text_23">
      <!-- 0.8 -->
      <g style="fill: #6e6e73" transform="translate(562.227647 242.476105) scale(0.09 -0.09)">
       <use xlink:href="#MicrosoftYaHei-16"/>
       <use xlink:href="#MicrosoftYaHei-14" transform="translate(58.640625 0)"/>
       <use xlink:href="#MicrosoftYaHei-1e" transform="translate(82.71875 0)"/>
      </g>
     </g>
    </g>
    <g id="xtick_12">
     <g id="line2d_23">
      <g>
       <use xlink:href="#md484ed8ca8" x="612.904208" y="228.168" style="fill: #6e6e73; stroke: #6e6e73; stroke-width: 0.8"/>
      </g>
     </g>
     <g id="text_24">
      <!-- 1.0 -->
      <g style="fill: #6e6e73" transform="translate(606.543036 242.476105) scale(0.09 -0.09)">
       <use xlink:href="#MicrosoftYaHei-17"/>
       <use xlink:href="#MicrosoftYaHei-14" transform="translate(58.640625 0)"/>
       <use xlink:href="#MicrosoftYaHei-16" transform="translate(82.71875 0)"/>
      </g>
     </g>
    </g>
    <g id="text_25">
     <!-- 下注比例 f -->
     <g style="fill: #1d1d1f" transform="translate(478.791664 257.141242) scale(0.1 -0.1)">
      <use xlink:href="#MicrosoftYaHei-408"/>
      <use xlink:href="#MicrosoftYaHei-868" transform="translate(100 0)"/>
      <use xlink:href="#MicrosoftYaHei-841" transform="translate(200 0)"/>
      <use xlink:href="#MicrosoftYaHei-486" transform="translate(300 0)"/>
      <use xlink:href="#MicrosoftYaHei-3" transform="translate(400 0)"/>
      <use xlink:href="#MicrosoftYaHei-4c" transform="translate(429.59375 0)"/>
     </g>
    </g>
   </g>
   <g id="matplotlib.axis_4">
    <g id="ytick_9">
     <g id="line2d_24">
      <g>
       <use xlink:href="#m0377143ae2" x="380.259491" y="215.353492" style="fill: #6e6e73; stroke: #6e6e73; stroke-width: 0.8"/>
      </g>
     </g>
     <g id="text_26">
      <!-- −2.5 -->
      <g style="fill: #6e6e73" transform="translate(353.861678 219.007545) scale(0.09 -0.09)">
       <defs>
        <path id="MicrosoftYaHei-25d" d="M 3972 1772 
L 788 1772 
L 788 2250 
L 3972 2250 
L 3972 1772 
z
" transform="scale(0.015625)"/>
        <path id="MicrosoftYaHei-1b" d="M 3294 1494 
Q 3294 784 2823 350 
Q 2353 -84 1559 -84 
Q 878 -84 544 119 
L 544 744 
Q 1034 425 1544 425 
Q 2050 425 2361 704 
Q 2672 984 2672 1447 
Q 2672 1909 2348 2167 
Q 2025 2425 1434 2425 
Q 978 2425 613 2384 
L 791 4841 
L 3053 4841 
L 3053 4303 
L 1306 4303 
L 1206 2931 
L 1647 2950 
Q 2416 2950 2855 2567 
Q 3294 2184 3294 1494 
z
" transform="scale(0.015625)"/>
       </defs>
       <use xlink:href="#MicrosoftYaHei-25d"/>
       <use xlink:href="#MicrosoftYaHei-18" transform="translate(74.171875 0)"/>
       <use xlink:href="#MicrosoftYaHei-14" transform="translate(132.8125 0)"/>
       <use xlink:href="#MicrosoftYaHei-1b" transform="translate(156.890625 0)"/>
      </g>
     </g>
    </g>
    <g id="ytick_10">
     <g id="line2d_25">
      <g>
       <use xlink:href="#m0377143ae2" x="380.259491" y="182.989194" style="fill: #6e6e73; stroke: #6e6e73; stroke-width: 0.8"/>
      </g>
     </g>
     <g id="text_27">
      <!-- −2.0 -->
      <g style="fill: #6e6e73" transform="translate(353.861678 186.643246) scale(0.09 -0.09)">
       <use xlink:href="#MicrosoftYaHei-25d"/>
       <use xlink:href="#MicrosoftYaHei-18" transform="translate(74.171875 0)"/>
       <use xlink:href="#MicrosoftYaHei-14" transform="translate(132.8125 0)"/>
       <use xlink:href="#MicrosoftYaHei-16" transform="translate(156.890625 0)"/>
      </g>
     </g>
    </g>
    <g id="ytick_11">
     <g id="line2d_26">
      <g>
       <use xlink:href="#m0377143ae2" x="380.259491" y="150.624895" style="fill: #6e6e73; stroke: #6e6e73; stroke-width: 0.8"/>
      </g>
     </g>
     <g id="text_28">
      <!-- −1.5 -->
      <g style="fill: #6e6e73" transform="translate(353.861678 154.278948) scale(0.09 -0.09)">
       <use xlink:href="#MicrosoftYaHei-25d"/>
       <use xlink:href="#MicrosoftYaHei-17" transform="translate(74.171875 0)"/>
       <use xlink:href="#MicrosoftYaHei-14" transform="translate(132.8125 0)"/>
       <use xlink:href="#MicrosoftYaHei-1b" transform="translate(156.890625 0)"/>
      </g>
     </g>
    </g>
    <g id="ytick_12">
     <g id="line2d_27">
      <g>
       <use xlink:href="#m0377143ae2" x="380.259491" y="118.260597" style="fill: #6e6e73; stroke: #6e6e73; stroke-width: 0.8"/>
      </g>
     </g>
     <g id="text_29">
      <!-- −1.0 -->
      <g style="fill: #6e6e73" transform="translate(353.861678 121.91465) scale(0.09 -0.09)">
       <use xlink:href="#MicrosoftYaHei-25d"/>
       <use xlink:href="#MicrosoftYaHei-17" transform="translate(74.171875 0)"/>
       <use xlink:href="#MicrosoftYaHei-14" transform="translate(132.8125 0)"/>
       <use xlink:href="#MicrosoftYaHei-16" transform="translate(156.890625 0)"/>
      </g>
     </g>
    </g>
    <g id="ytick_13">
     <g id="line2d_28">
      <g>
       <use xlink:href="#m0377143ae2" x="380.259491" y="85.896298" style="fill: #6e6e73; stroke: #6e6e73; stroke-width: 0.8"/>
      </g>
     </g>
     <g id="text_30">
      <!-- −0.5 -->
      <g style="fill: #6e6e73" transform="translate(353.861678 89.550351) scale(0.09 -0.09)">
       <use xlink:href="#MicrosoftYaHei-25d"/>
       <use xlink:href="#MicrosoftYaHei-16" transform="translate(74.171875 0)"/>
       <use xlink:href="#MicrosoftYaHei-14" transform="translate(132.8125 0)"/>
       <use xlink:href="#MicrosoftYaHei-1b" transform="translate(156.890625 0)"/>
      </g>
     </g>
    </g>
    <g id="ytick_14">
     <g id="line2d_29">
      <g>
       <use xlink:href="#m0377143ae2" x="380.259491" y="53.532" style="fill: #6e6e73; stroke: #6e6e73; stroke-width: 0.8"/>
      </g>
     </g>
     <g id="text_31">
      <!-- 0.0 -->
      <g style="fill: #6e6e73" transform="translate(360.537147 57.186053) scale(0.09 -0.09)">
       <use xlink:href="#MicrosoftYaHei-16"/>
       <use xlink:href="#MicrosoftYaHei-14" transform="translate(58.640625 0)"/>
       <use xlink:href="#MicrosoftYaHei-16" transform="translate(82.71875 0)"/>
      </g>
     </g>
    </g>
   </g>
   <g id="line2d_30">
    <path d="M 391.32726 53.532 
L 393.18629 53.863152 
L 395.047536 54.215534 
L 396.906567 54.581639 
L 398.767813 54.958554 
L 400.626844 55.344595 
L 402.48809 55.738857 
L 404.347121 56.140692 
L 406.208367 56.549582 
L 408.067398 56.96527 
L 409.928644 57.387494 
L 411.787675 57.815933 
L 413.648921 58.250585 
L 415.507952 58.691322 
L 417.369198 59.13795 
L 419.228229 59.590532 
L 421.089475 60.049005 
L 422.948506 60.513303 
L 424.809752 60.983427 
L 426.668783 61.459441 
L 428.530029 61.94128 
L 430.38906 62.42901 
L 432.250306 62.922695 
L 434.109337 63.422335 
L 435.970583 63.92793 
L 437.829614 64.439675 
L 439.69086 64.957504 
L 441.549891 65.481546 
L 443.411137 66.011868 
L 445.270168 66.548468 
L 447.131414 67.091605 
L 448.990445 67.641216 
L 450.851691 68.197493 
L 452.710722 68.760438 
L 454.571968 69.330244 
L 456.430999 69.90704 
L 458.292245 70.490828 
L 460.151276 71.081864 
L 462.012522 71.680216 
L 463.871553 72.286075 
L 465.732799 72.899508 
L 467.59183 73.520709 
L 469.453076 74.149806 
L 471.312106 74.786994 
L 473.173353 75.432403 
L 475.032383 76.086226 
L 476.89363 76.748724 
L 478.75266 77.419959 
L 480.613907 78.100257 
L 482.472937 78.789746 
L 484.334184 79.488685 
L 486.193214 80.197269 
L 488.054461 80.915757 
L 489.913491 81.644471 
L 491.774738 82.383542 
L 493.633768 83.133294 
L 495.495015 83.893984 
L 497.354045 84.666002 
L 499.215292 85.449542 
L 501.074322 86.245056 
L 502.935569 87.05274 
L 504.794599 87.87311 
L 506.655846 88.706361 
L 508.514876 89.553076 
L 510.376123 90.413513 
L 512.235153 91.288126 
L 514.0964 92.177497 
L 515.95543 93.081949 
L 517.816677 94.002066 
L 519.675707 94.938366 
L 521.536953 95.891365 
L 523.395984 96.861776 
L 525.25723 97.850052 
L 527.116261 98.85697 
L 528.977507 99.883242 
L 530.836538 100.929515 
L 532.697784 101.996631 
L 534.556815 103.08543 
L 536.418061 104.19682 
L 538.277092 105.331642 
L 540.138338 106.490996 
L 541.997369 107.675982 
L 543.858615 108.887702 
L 545.717646 110.127384 
L 547.578892 111.396323 
L 549.437923 112.696074 
L 551.299169 114.028059 
L 553.1582 115.393961 
L 555.019446 116.79553 
L 556.878477 118.23477 
L 558.739723 119.713819 
L 560.598754 121.234941 
L 562.46 122.800596 
L 564.319031 124.413568 
L 566.180277 126.076963 
L 568.039308 127.793954 
L 569.900554 129.568359 
L 571.759585 131.404256 
L 573.620831 133.306112 
L 575.479862 135.279104 
L 577.341108 137.328994 
L 579.200139 139.462254 
L 581.061385 141.686329 
L 582.920416 144.009568 
L 584.781662 146.44181 
L 586.640693 148.994382 
L 588.501939 151.680554 
L 590.36097 154.516055 
L 592.222216 157.519785 
L 594.081247 160.714465 
L 595.942493 164.128316 
L 597.801524 167.796615 
L 599.66277 171.764478 
L 601.5218 176.091326 
L 603.383047 180.85794 
L 605.242077 186.179213 
L 607.103324 192.228424 
L 608.962354 199.29245 
L 610.823601 207.928734 
L 612.682631 219.852 
" clip-path="url(#pdedbec1a16)" style="fill: none; stroke: #ff9500; stroke-width: 2; stroke-linecap: square"/>
   </g>
   <g id="line2d_31">
    <path d="M 380.259491 53.532 
L 623.7504 53.532 
" clip-path="url(#pdedbec1a16)" style="fill: none; stroke: #d2d2d7; stroke-width: 0.9; stroke-linecap: square"/>
   </g>
   <g id="line2d_32">
    <path d="M 391.32726 228.168 
L 391.32726 45.216 
" clip-path="url(#pdedbec1a16)" style="fill: none; stroke-dasharray: 4.4,3.3; stroke-dashoffset: 0; stroke: #ff9500; stroke-width: 1.1"/>
   </g>
   <g id="patch_6">
    <path d="M 380.259491 228.168 
L 380.259491 45.216 
" style="fill: none; stroke: #d2d2d7; stroke-width: 0.8; stroke-linejoin: miter; stroke-linecap: square"/>
   </g>
   <g id="patch_7">
    <path d="M 380.259491 228.168 
L 623.7504 228.168 
" style="fill: none; stroke: #d2d2d7; stroke-width: 0.8; stroke-linejoin: miter; stroke-linecap: square"/>
   </g>
   <g id="text_32">
    <!-- f* = 0.00 -->
    <g style="fill: #ff9500" transform="translate(387.564218 217.19088) scale(0.1 -0.1)">
     <use xlink:href="#MicrosoftYaHei-Bold-4c"/>
     <use xlink:href="#MicrosoftYaHei-Bold-10" transform="translate(42.484375 0)"/>
     <use xlink:href="#MicrosoftYaHei-Bold-3" transform="translate(91.21875 0)"/>
     <use xlink:href="#MicrosoftYaHei-Bold-23" transform="translate(121 0)"/>
     <use xlink:href="#MicrosoftYaHei-Bold-3" transform="translate(197.125 0)"/>
     <use xlink:href="#MicrosoftYaHei-Bold-16" transform="translate(226.90625 0)"/>
     <use xlink:href="#MicrosoftYaHei-Bold-14" transform="translate(288.578125 0)"/>
     <use xlink:href="#MicrosoftYaHei-Bold-16" transform="translate(317.140625 0)"/>
     <use xlink:href="#MicrosoftYaHei-Bold-16" transform="translate(378.8125 0)"/>
    </g>
   </g>
   <g id="text_33">
    <!-- 全成本口径（含 5,200 小时） -->
    <g style="fill: #1d1d1f" transform="translate(380.259491 35.216) scale(0.11 -0.11)">
     <defs>
      <path id="MicrosoftYaHei-Bold-4b5" d="M 369 184 
L 2731 184 
L 2731 934 
L 869 934 
L 869 1734 
L 2731 1734 
L 2731 2366 
L 1525 2366 
L 1525 2859 
Q 1113 2566 644 2284 
Q 463 2541 88 3016 
Q 2088 4091 2800 5316 
L 3894 5316 
L 3731 5078 
Q 4538 3922 6313 3091 
Q 5981 2678 5750 2353 
Q 5281 2603 4875 2878 
L 4875 2366 
L 3663 2366 
L 3663 1734 
L 5544 1734 
L 5544 934 
L 3663 934 
L 3663 184 
L 6031 184 
L 6031 -616 
L 369 -616 
L 369 184 
z
M 3200 4416 
Q 2688 3766 1925 3166 
L 4475 3166 
Q 3725 3741 3200 4416 
z
" transform="scale(0.015625)"/>
      <path id="MicrosoftYaHei-Bold-6c9" d="M 1606 9 
Q 1544 541 1456 922 
Q 1753 866 1925 866 
Q 2259 866 2304 1197 
Q 2350 1528 2350 2047 
L 1438 2047 
Q 1428 106 825 -859 
Q 481 -534 88 -247 
Q 606 597 613 2172 
L 613 4291 
L 3547 4291 
L 3519 5322 
L 4406 5322 
L 4416 4291 
L 5269 4291 
Q 5103 4509 4738 4941 
L 5394 5297 
Q 5613 5059 6019 4553 
L 5538 4291 
L 6225 4291 
L 6225 3541 
L 4431 3541 
Q 4463 2569 4566 1856 
Q 4978 2491 5300 3234 
L 6069 2878 
Q 5519 1663 4828 734 
Q 5063 125 5250 125 
Q 5322 125 5369 215 
Q 5416 306 5472 667 
Q 5528 1028 5531 1291 
Q 5813 1128 6331 909 
Q 6313 572 6175 22 
Q 6038 -528 5813 -681 
Q 5588 -834 5359 -834 
Q 4678 -834 4231 16 
Q 3781 -472 3281 -859 
Q 2981 -491 2631 -197 
Q 3322 300 3888 953 
Q 3659 1891 3578 3541 
L 1438 3541 
L 1438 2803 
L 3219 2803 
Q 3219 2709 3181 1714 
Q 3144 719 3012 491 
Q 2881 263 2673 117 
Q 2466 -28 1606 9 
z
" transform="scale(0.015625)"/>
      <path id="MicrosoftYaHei-Bold-7af" d="M 356 4403 
L 2744 4403 
L 2744 5328 
L 3619 5328 
L 3619 4403 
L 6044 4403 
L 6044 3591 
L 3878 3591 
Q 4894 2006 6325 1166 
Q 6056 884 5656 366 
Q 4409 1409 3619 2741 
L 3619 1047 
L 4875 1047 
L 4875 259 
L 3619 259 
L 3619 -828 
L 2744 -828 
L 2744 259 
L 1481 259 
L 1481 1016 
Q 1119 634 713 291 
Q 369 741 75 1066 
Q 1553 2069 2506 3591 
L 356 3591 
L 356 4403 
z
M 1509 1047 
L 2744 1047 
L 2744 2681 
Q 2209 1794 1509 1047 
z
" transform="scale(0.015625)"/>
      <path id="MicrosoftYaHei-Bold-363" d="M 5197 -1088 
Q 4056 184 4056 1881 
Q 4056 3616 5203 4838 
L 6034 4838 
Q 4922 3503 4922 1888 
Q 4922 266 6028 -1088 
L 5197 -1088 
z
" transform="scale(0.015625)"/>
      <path id="MicrosoftYaHei-Bold-56c" d="M 2531 3691 
L 3419 3941 
Q 3606 3516 3769 3053 
L 3181 2909 
L 5188 2909 
L 5188 2216 
L 4475 1616 
L 5588 1616 
L 5588 -809 
L 4688 -809 
L 4688 -584 
L 1713 -584 
L 1713 -828 
L 813 -828 
L 813 1616 
L 3313 1616 
L 3988 2209 
L 1088 2209 
L 1088 2909 
L 2819 2909 
Q 2675 3347 2531 3691 
z
M 3944 5303 
L 3756 5072 
Q 4794 3978 6319 3647 
Q 6131 3359 5813 2803 
Q 4313 3284 3206 4459 
Q 2200 3416 594 2791 
Q 331 3247 75 3603 
Q 1975 4178 2813 5303 
L 3944 5303 
z
M 4688 891 
L 1713 891 
L 1713 141 
L 4688 141 
L 4688 891 
z
" transform="scale(0.015625)"/>
      <path id="MicrosoftYaHei-Bold-1b" d="M 541 125 
L 541 997 
Q 1044 691 1613 691 
Q 2041 691 2283 902 
Q 2525 1113 2525 1472 
Q 2525 2225 1494 2225 
Q 1113 2225 616 2169 
L 797 4841 
L 3359 4841 
L 3359 4009 
L 1613 4009 
L 1544 2991 
Q 1803 3013 2022 3013 
Q 2731 3013 3142 2625 
Q 3553 2238 3553 1575 
Q 3553 844 3056 380 
Q 2559 -84 1706 -84 
Q 1016 -84 541 125 
z
" transform="scale(0.015625)"/>
      <path id="MicrosoftYaHei-Bold-12" d="M 1419 841 
L 916 -859 
L 134 -859 
L 484 841 
L 1419 841 
z
" transform="scale(0.015625)"/>
      <path id="MicrosoftYaHei-Bold-18" d="M 1500 841 
L 3553 841 
L 3553 0 
L 334 0 
L 334 359 
Q 334 738 473 1050 
Q 613 1363 856 1633 
Q 1100 1903 1613 2266 
Q 2081 2616 2268 2886 
Q 2456 3156 2456 3459 
Q 2456 4113 1744 4113 
Q 1119 4113 550 3613 
L 550 4513 
Q 1184 4922 1975 4922 
Q 2700 4922 3122 4551 
Q 3544 4181 3544 3531 
Q 3544 3169 3422 2876 
Q 3300 2584 3069 2328 
Q 2838 2072 2328 1713 
Q 1838 1363 1669 1172 
Q 1500 981 1500 841 
z
" transform="scale(0.015625)"/>
      <path id="MicrosoftYaHei-Bold-633" d="M 2788 5272 
L 3763 5272 
L 3763 541 
Q 3763 -75 3570 -367 
Q 3378 -659 3076 -712 
Q 2775 -766 1700 -766 
Q 1606 -234 1469 222 
Q 1969 166 2344 166 
Q 2788 166 2788 684 
L 2788 5272 
z
M 5206 3922 
Q 5800 2553 6356 1041 
L 5369 659 
Q 4856 2278 4325 3628 
L 5206 3922 
z
M 1069 3916 
L 2006 3691 
Q 1550 2016 1038 622 
L 113 972 
Q 663 2397 1069 3916 
z
" transform="scale(0.015625)"/>
      <path id="MicrosoftYaHei-Bold-77f" d="M 3038 4241 
L 4888 4241 
L 4888 5291 
L 5781 5291 
L 5781 4241 
L 6306 4241 
L 6306 3409 
L 5781 3409 
L 5781 316 
Q 5781 -209 5547 -478 
Q 5313 -747 4898 -762 
Q 4484 -778 3669 -778 
Q 3569 -209 3456 134 
Q 4344 109 4431 109 
Q 4888 109 4888 584 
L 4888 3409 
L 3038 3409 
L 3038 4241 
z
M 394 -497 
L 394 4897 
L 2856 4897 
L 2856 -459 
L 2031 -459 
L 2031 -28 
L 1219 -28 
L 1219 -497 
L 394 -497 
z
M 2031 4072 
L 1219 4072 
L 1219 2834 
L 2031 2834 
L 2031 4072 
z
M 1219 797 
L 2031 797 
L 2031 2034 
L 1219 2034 
L 1219 797 
z
M 3588 3072 
Q 4013 2541 4713 1559 
L 3956 1066 
Q 3388 2009 2938 2641 
L 3588 3072 
z
" transform="scale(0.015625)"/>
      <path id="MicrosoftYaHei-Bold-364" d="M 1191 -1088 
L 359 -1088 
Q 1472 238 1472 1863 
Q 1472 3478 366 4838 
L 1197 4838 
Q 2338 3572 2338 1863 
Q 2338 125 1191 -1088 
z
" transform="scale(0.015625)"/>
     </defs>
     <use xlink:href="#MicrosoftYaHei-Bold-4b5"/>
     <use xlink:href="#MicrosoftYaHei-Bold-6c9" transform="translate(100 0)"/>
     <use xlink:href="#MicrosoftYaHei-Bold-7af" transform="translate(200 0)"/>
     <use xlink:href="#MicrosoftYaHei-Bold-54c" transform="translate(300 0)"/>
     <use xlink:href="#MicrosoftYaHei-Bold-6ab" transform="translate(400 0)"/>
     <use xlink:href="#MicrosoftYaHei-Bold-363" transform="translate(500 0)"/>
     <use xlink:href="#MicrosoftYaHei-Bold-56c" transform="translate(600 0)"/>
     <use xlink:href="#MicrosoftYaHei-Bold-3" transform="translate(700 0)"/>
     <use xlink:href="#MicrosoftYaHei-Bold-1b" transform="translate(729.78125 0)"/>
     <use xlink:href="#MicrosoftYaHei-Bold-12" transform="translate(791.453125 0)"/>
     <use xlink:href="#MicrosoftYaHei-Bold-18" transform="translate(820.015625 0)"/>
     <use xlink:href="#MicrosoftYaHei-Bold-16" transform="translate(881.6875 0)"/>
     <use xlink:href="#MicrosoftYaHei-Bold-16" transform="translate(943.359375 0)"/>
     <use xlink:href="#MicrosoftYaHei-Bold-3" transform="translate(1005.03125 0)"/>
     <use xlink:href="#MicrosoftYaHei-Bold-633" transform="translate(1034.8125 0)"/>
     <use xlink:href="#MicrosoftYaHei-Bold-77f" transform="translate(1134.8125 0)"/>
     <use xlink:href="#MicrosoftYaHei-Bold-364" transform="translate(1234.8125 0)"/>
    </g>
   </g>
  </g>
  <g id="text_34">
   <!-- Kelly 增长率曲线：两个口径给出方向相反的答案 -->
   <g style="fill: #1d1d1f" transform="translate(7.2 17.729297) scale(0.125 -0.125)">
    <defs>
     <path id="MicrosoftYaHei-31" d="M 4069 0 
L 3213 0 
L 1394 2200 
Q 1300 2316 1266 2381 
L 1250 2381 
L 1250 0 
L 625 0 
L 625 4841 
L 1250 4841 
L 1250 2563 
L 1266 2563 
Q 1319 2647 1394 2741 
L 3150 4841 
L 3922 4841 
L 1891 2519 
L 4069 0 
z
" transform="scale(0.015625)"/>
     <path id="MicrosoftYaHei-4b" d="M 3363 1572 
L 944 1572 
Q 959 1019 1246 717 
Q 1534 416 2050 416 
Q 2631 416 3116 788 
L 3116 241 
Q 2659 -81 1906 -81 
Q 1156 -81 736 394 
Q 316 869 316 1713 
Q 316 2506 777 3022 
Q 1238 3538 1922 3538 
Q 2600 3538 2981 3102 
Q 3363 2666 3363 1881 
L 3363 1572 
z
M 2750 2063 
Q 2747 2531 2528 2787 
Q 2309 3044 1913 3044 
Q 1547 3044 1280 2772 
Q 1013 2500 944 2063 
L 2750 2063 
z
" transform="scale(0.015625)"/>
     <path id="MicrosoftYaHei-5f" d="M 3359 3456 
L 1791 -522 
Q 1353 -1628 556 -1628 
Q 328 -1628 166 -1578 
L 166 -1041 
Q 344 -1109 509 -1109 
Q 925 -1109 1131 -622 
L 1397 6 
L 41 3456 
L 719 3456 
L 1622 859 
L 1697 575 
L 1713 575 
Q 1731 672 1788 853 
L 2731 3456 
L 3359 3456 
z
" transform="scale(0.015625)"/>
     <path id="MicrosoftYaHei-5cd" d="M 2188 4459 
L 3259 4459 
Q 3041 4781 2775 5116 
L 3131 5366 
Q 3456 4991 3694 4666 
L 3403 4459 
L 4453 4459 
Q 4759 4888 5050 5372 
L 5500 5116 
Q 5234 4772 4978 4459 
L 6038 4459 
L 6038 2122 
L 5600 2122 
L 5600 2309 
L 2625 2309 
L 2625 2122 
L 2188 2122 
L 2188 4459 
z
M 2438 1797 
L 5788 1797 
L 5788 -847 
L 5338 -847 
L 5338 -547 
L 2888 -547 
L 2888 -847 
L 2438 -847 
L 2438 1797 
z
M 81 428 
Q 466 538 894 672 
L 894 3253 
L 144 3253 
L 144 3697 
L 894 3697 
L 894 5259 
L 1356 5259 
L 1356 3697 
L 2000 3697 
L 2000 3253 
L 1356 3253 
L 1356 819 
Q 1709 931 2094 1059 
Q 2106 759 2125 553 
Q 1306 316 250 -53 
L 81 428 
z
M 5600 4084 
L 4325 4084 
L 4325 2684 
L 5600 2684 
L 5600 4084 
z
M 2625 2684 
L 3894 2684 
L 3894 4084 
L 2625 4084 
L 2625 2684 
z
M 5338 1409 
L 2888 1409 
L 2888 809 
L 5338 809 
L 5338 1409 
z
M 2888 -159 
L 5338 -159 
L 5338 434 
L 2888 434 
L 2888 -159 
z
M 5350 3609 
Q 5006 3066 4856 2884 
L 4519 3084 
Q 4744 3391 4981 3828 
L 5350 3609 
z
M 2863 3597 
L 3181 3803 
Q 3463 3441 3669 3122 
L 3319 2897 
Q 3119 3228 2863 3597 
z
" transform="scale(0.015625)"/>
     <path id="MicrosoftYaHei-b78" d="M 169 2766 
L 1269 2766 
L 1269 5316 
L 1781 5316 
L 1781 2766 
L 6194 2766 
L 6194 2278 
L 3456 2278 
Q 4238 566 6325 -78 
Q 6113 -359 5944 -591 
Q 3697 266 2925 2278 
L 1781 2278 
L 1781 16 
Q 2494 303 3294 678 
Q 3294 384 3319 116 
Q 2575 -191 1894 -528 
Q 1644 -666 1431 -834 
L 1056 -353 
Q 1269 -184 1269 103 
L 1269 2278 
L 169 2278 
L 169 2766 
z
M 2156 3528 
Q 3706 4047 5138 5109 
L 5463 4703 
Q 4000 3634 2400 3066 
Q 2300 3278 2156 3528 
z
" transform="scale(0.015625)"/>
     <path id="MicrosoftYaHei-8e4" d="M 2525 2009 
Q 2622 2016 3928 2081 
Q 3772 2300 3625 2491 
L 3963 2703 
Q 4413 2203 4794 1653 
L 4394 1403 
Q 4284 1569 4178 1725 
Q 2991 1659 2213 1597 
Q 2075 1584 1881 1541 
L 1725 1966 
Q 1913 2028 2006 2084 
Q 2534 2441 3050 2913 
Q 2597 2894 2275 2866 
Q 2144 2847 1988 2809 
L 1800 3191 
Q 1956 3247 2088 3366 
Q 2509 3722 2875 4228 
L 231 4228 
L 231 4666 
L 3031 4666 
Q 2878 4944 2744 5153 
L 3194 5372 
Q 3438 5000 3616 4666 
L 6175 4666 
L 6175 4228 
L 3053 4228 
L 3350 4072 
Q 2844 3553 2494 3247 
Q 2850 3256 3425 3269 
Q 3675 3519 3925 3797 
L 4356 3547 
Q 3363 2603 2525 2009 
z
M 144 991 
L 2994 991 
L 2994 1541 
L 3488 1541 
L 3488 991 
L 6275 991 
L 6275 553 
L 3488 553 
L 3488 -853 
L 2994 -853 
L 2994 553 
L 144 553 
L 144 991 
z
M 1719 2672 
L 1944 2303 
Q 1200 1866 425 1409 
L 163 1828 
Q 813 2134 1719 2672 
z
M 4856 2678 
Q 5750 2172 6250 1816 
L 5975 1409 
Q 5331 1909 4600 2341 
L 4856 2678 
z
M 5994 3591 
Q 5519 3178 4963 2809 
L 4644 3141 
Q 5244 3534 5638 3928 
L 5994 3591 
z
M 363 3634 
L 681 3941 
Q 1200 3528 1588 3159 
L 1238 2816 
Q 875 3197 363 3634 
z
" transform="scale(0.015625)"/>
     <path id="MicrosoftYaHei-7bc" d="M 2163 5322 
L 2625 5322 
L 2625 4291 
L 3775 4291 
L 3775 5328 
L 4238 5328 
L 4238 4291 
L 5850 4291 
L 5850 -822 
L 5388 -822 
L 5388 -409 
L 1013 -409 
L 1013 -822 
L 550 -822 
L 550 4291 
L 2163 4291 
L 2163 5322 
z
M 1013 41 
L 2163 41 
L 2163 1753 
L 1013 1753 
L 1013 41 
z
M 4238 41 
L 5388 41 
L 5388 1753 
L 4238 1753 
L 4238 41 
z
M 2625 41 
L 3775 41 
L 3775 1753 
L 2625 1753 
L 2625 41 
z
M 1013 2203 
L 2163 2203 
L 2163 3841 
L 1013 3841 
L 1013 2203 
z
M 5388 3841 
L 4238 3841 
L 4238 2203 
L 5388 2203 
L 5388 3841 
z
M 2625 2203 
L 3775 2203 
L 3775 3841 
L 2625 3841 
L 2625 2203 
z
" transform="scale(0.015625)"/>
     <path id="MicrosoftYaHei-9bf" d="M 1969 -347 
Q 3144 75 4003 631 
Q 3781 1197 3653 1972 
L 2319 1784 
L 2244 2234 
L 3591 2422 
Q 3538 2859 3513 3356 
L 2381 3228 
L 2306 3678 
L 3488 3809 
Q 3453 4459 3425 5303 
L 3938 5303 
Q 3953 4497 3978 3866 
L 6069 4103 
L 6125 3659 
L 3997 3413 
Q 4019 2919 4069 2488 
L 6225 2791 
L 6281 2347 
L 4128 2041 
Q 4234 1394 4416 916 
Q 5078 1416 5519 2009 
L 5925 1703 
Q 5363 1025 4619 475 
Q 4859 44 5194 -184 
Q 5606 -428 5725 66 
Q 5806 466 5856 953 
Q 6144 828 6338 772 
Q 6231 97 6125 -247 
Q 5944 -778 5506 -778 
Q 5050 -778 4663 -403 
Q 4409 -163 4209 194 
Q 3350 -363 2281 -772 
Q 2169 -597 1969 -347 
z
M 900 1541 
Q 1456 1622 2213 1753 
Q 2175 1522 2156 1272 
Q 1113 1109 325 978 
L 225 1447 
Q 659 1913 1178 2775 
Q 672 2747 225 2703 
L 106 3128 
Q 688 3922 1300 5353 
L 1775 5166 
Q 1131 3897 669 3166 
Q 1041 3178 1422 3194 
Q 1638 3578 1869 4028 
L 2331 3797 
Q 1569 2478 900 1541 
z
M 106 97 
Q 1206 334 2331 616 
Q 2313 366 2313 141 
Q 1269 -103 244 -378 
L 106 97 
z
M 4463 4972 
L 4731 5284 
Q 5175 5003 5681 4609 
L 5381 4247 
Q 4863 4691 4463 4972 
z
" transform="scale(0.015625)"/>
     <path id="MicrosoftYaHei-379" d="M 1606 3531 
Q 1772 3531 1890 3415 
Q 2009 3300 2009 3138 
Q 2009 2975 1893 2858 
Q 1778 2741 1606 2741 
Q 1434 2741 1318 2858 
Q 1203 2975 1203 3138 
Q 1203 3300 1322 3415 
Q 1441 3531 1606 3531 
z
M 1606 716 
Q 1772 716 1890 600 
Q 2009 484 2009 319 
Q 2009 150 1890 36 
Q 1772 -78 1606 -78 
Q 1441 -78 1322 36 
Q 1203 150 1203 319 
Q 1203 484 1322 600 
Q 1441 716 1606 716 
z
" transform="scale(0.015625)"/>
     <path id="MicrosoftYaHei-414" d="M 163 4991 
L 6238 4991 
L 6238 4534 
L 4325 4534 
Q 4328 4084 4316 3697 
L 5856 3697 
L 5856 3 
Q 5856 -716 5138 -716 
Q 4800 -716 4181 -703 
Q 4150 -484 4094 -216 
Q 4688 -259 4994 -259 
Q 5388 -259 5388 122 
L 5388 3247 
L 4297 3247 
Q 4269 2634 4172 2138 
Q 4859 1500 5325 966 
L 5000 616 
Q 4519 1194 4038 1678 
Q 3734 834 3050 147 
Q 2913 303 2663 484 
Q 3844 1559 3844 3247 
L 2538 3247 
Q 2506 2591 2444 2316 
Q 2956 1897 3288 1603 
L 3013 1191 
Q 2675 1541 2325 1869 
Q 2044 1025 1381 334 
Q 1231 503 1019 691 
Q 2056 1653 2084 3247 
L 1000 3247 
L 1000 -747 
L 531 -747 
L 531 3697 
L 2103 3697 
Q 2116 4091 2113 4534 
L 163 4534 
L 163 4991 
z
M 2556 3697 
L 3863 3697 
Q 3875 4094 3872 4534 
L 2569 4534 
Q 2569 4084 2556 3697 
z
" transform="scale(0.015625)"/>
     <path id="MicrosoftYaHei-417" d="M 2913 3028 
L 3481 3028 
L 3481 -841 
L 2913 -841 
L 2913 3028 
z
M 3600 5178 
L 3506 5034 
Q 4519 3366 6319 2647 
Q 6125 2341 5988 2084 
Q 4150 3047 3206 4566 
Q 2281 3122 400 1997 
Q 263 2222 81 2491 
Q 2031 3572 2981 5178 
L 3600 5178 
z
" transform="scale(0.015625)"/>
     <path id="MicrosoftYaHei-54d" d="M 713 4684 
L 5675 4684 
L 5675 -578 
L 5138 -578 
L 5138 28 
L 1250 28 
L 1250 -578 
L 713 -578 
L 713 4684 
z
M 5138 497 
L 5138 4216 
L 1250 4216 
L 1250 497 
L 5138 497 
z
" transform="scale(0.015625)"/>
     <path id="MicrosoftYaHei-6ac" d="M 2388 4466 
L 2388 4891 
L 5738 4891 
L 5738 4459 
Q 5216 3866 4619 3391 
Q 5559 2888 6338 2428 
L 6038 1972 
Q 5256 2494 4216 3091 
Q 3253 2422 2106 2041 
Q 2000 2247 1850 2459 
Q 3894 3153 5025 4466 
L 2388 4466 
z
M 1931 -66 
L 3881 -66 
L 3881 1403 
L 2288 1403 
L 2288 1828 
L 5950 1828 
L 5950 1403 
L 4344 1403 
L 4344 -66 
L 6300 -66 
L 6300 -491 
L 1931 -491 
L 1931 -66 
z
M 38 1572 
Q 975 2353 1750 3809 
L 2175 3541 
Q 1844 2953 1475 2444 
L 1475 -816 
L 994 -816 
L 994 1831 
Q 638 1419 250 1066 
Q 156 1328 38 1572 
z
M 106 3616 
Q 1038 4359 1638 5391 
L 2063 5116 
Q 1356 3997 344 3134 
Q 238 3359 106 3616 
z
" transform="scale(0.015625)"/>
     <path id="MicrosoftYaHei-9cb" d="M 2538 1791 
L 5700 1791 
L 5700 -853 
L 5225 -853 
L 5225 -434 
L 3013 -434 
L 3013 -859 
L 2538 -859 
L 2538 1791 
z
M 856 1572 
Q 881 1572 2150 1672 
Q 2119 1478 2094 1266 
Q 1050 1172 313 1091 
L 213 1491 
Q 588 1847 1156 2803 
Q 763 2778 213 2734 
L 81 3128 
Q 619 3741 1256 5278 
L 1750 5103 
Q 1138 3922 625 3166 
Q 1000 3172 1369 3178 
Q 1594 3566 1838 4034 
L 2306 3834 
Q 1431 2384 856 1572 
z
M 5225 1359 
L 3013 1359 
L 3013 -3 
L 5225 -3 
L 5225 1359 
z
M 4475 5278 
L 4344 5066 
Q 5075 3872 6350 3091 
Q 6169 2903 5988 2684 
Q 4763 3553 4081 4641 
Q 3400 3491 2313 2603 
Q 2194 2741 1950 2953 
Q 3213 3916 3919 5278 
L 4475 5278 
z
M 2750 2959 
L 5488 2959 
L 5488 2528 
L 2750 2528 
L 2750 2959 
z
M 106 122 
Q 1269 341 2194 553 
Q 2188 322 2200 109 
Q 925 -159 269 -341 
L 106 122 
z
" transform="scale(0.015625)"/>
     <path id="MicrosoftYaHei-4df" d="M 5100 2172 
L 5100 2403 
L 3456 2403 
L 3456 -47 
L 5288 -47 
L 5288 1734 
L 5813 1734 
L 5813 -747 
L 5288 -747 
L 5288 -522 
L 588 -522 
L 588 1734 
L 1119 1734 
L 1119 -47 
L 2913 -47 
L 2913 2403 
L 756 2403 
L 756 4647 
L 1288 4647 
L 1288 2878 
L 2913 2878 
L 2913 5222 
L 3456 5222 
L 3456 2878 
L 5100 2878 
L 5100 4647 
L 5631 4647 
L 5631 2172 
L 5100 2172 
z
" transform="scale(0.015625)"/>
     <path id="MicrosoftYaHei-790" d="M 194 4241 
L 3194 4241 
Q 2878 4841 2700 5116 
L 3188 5347 
Q 3363 5078 3713 4472 
L 3256 4241 
L 6219 4241 
L 6219 3766 
L 2428 3766 
Q 2406 3197 2381 2797 
L 5400 2797 
Q 5325 1441 5238 441 
Q 5169 -691 4138 -691 
Q 3663 -691 2869 -641 
Q 2838 -403 2775 -66 
Q 3569 -172 4063 -172 
Q 4638 -172 4706 509 
Q 4781 1253 4838 2328 
L 2347 2328 
Q 2172 266 438 -872 
Q 269 -672 56 -447 
Q 1706 641 1825 2466 
Q 1869 2959 1897 3766 
L 194 3766 
L 194 4241 
z
" transform="scale(0.015625)"/>
     <path id="MicrosoftYaHei-567" d="M 1038 -772 
L 550 -772 
L 550 4359 
L 2394 4359 
Q 2550 4822 2694 5328 
L 3231 5178 
Q 3069 4741 2913 4359 
L 5838 4359 
L 5838 -34 
Q 5838 -741 5131 -741 
Q 4738 -741 4181 -728 
Q 4150 -509 4094 -241 
Q 4631 -284 5006 -284 
Q 5350 -284 5350 78 
L 5350 3897 
L 1038 3897 
L 1038 -772 
z
M 1894 2997 
L 4481 2997 
L 4481 803 
L 2369 803 
L 2369 372 
L 1894 372 
L 1894 2997 
z
M 4006 2547 
L 2369 2547 
L 2369 1253 
L 4006 1253 
L 4006 2547 
z
" transform="scale(0.015625)"/>
     <path id="MicrosoftYaHei-92c" d="M 2738 4891 
L 6025 4891 
L 6025 -822 
L 5550 -822 
L 5550 -397 
L 3213 -397 
L 3213 -822 
L 2738 -822 
L 2738 4891 
z
M 94 1409 
Q 784 2372 1128 3622 
L 169 3622 
L 169 4041 
L 1138 4041 
L 1138 5284 
L 1594 5284 
L 1594 4041 
L 2506 4041 
L 2506 3622 
L 1594 3622 
L 1594 2534 
L 1844 2791 
Q 2275 2372 2638 1984 
L 2300 1653 
Q 1956 2059 1594 2444 
L 1594 -809 
L 1138 -809 
L 1138 2444 
Q 800 1516 319 866 
Q 225 1134 94 1409 
z
M 3213 28 
L 5550 28 
L 5550 1241 
L 3213 1241 
L 3213 28 
z
M 5550 4466 
L 3213 4466 
L 3213 3266 
L 5550 3266 
L 5550 4466 
z
M 3213 1653 
L 5550 1653 
L 5550 2853 
L 3213 2853 
L 3213 1653 
z
" transform="scale(0.015625)"/>
     <path id="MicrosoftYaHei-546" d="M 881 4884 
Q 3369 4903 5738 5191 
L 5919 4691 
Q 3750 4503 1369 4434 
L 1369 3372 
L 5638 3372 
L 5638 2909 
Q 5125 1525 4100 591 
Q 5019 -25 6331 -247 
Q 6106 -534 5938 -803 
Q 4616 -422 3697 253 
Q 2738 -475 1406 -878 
Q 1263 -659 1063 -397 
Q 2366 -44 3278 597 
Q 2256 1525 1859 2909 
L 1369 2909 
L 1369 2553 
Q 1369 334 413 -853 
Q 250 -653 63 -453 
Q 881 559 881 2553 
L 881 4884 
z
M 5050 2909 
L 2366 2909 
Q 2794 1678 3681 909 
Q 4622 1722 5050 2909 
z
" transform="scale(0.015625)"/>
     <path id="MicrosoftYaHei-919" d="M 356 4284 
L 988 4284 
Q 1219 4853 1369 5322 
L 1894 5172 
Q 1697 4694 1513 4284 
L 2763 4284 
L 2763 -691 
L 2263 -691 
L 2263 -203 
L 856 -203 
L 856 -734 
L 356 -734 
L 356 4284 
z
M 2856 3003 
Q 3444 3934 3850 5322 
L 4375 5191 
Q 4216 4719 4050 4303 
L 6063 4303 
Q 5988 1091 5938 259 
Q 5894 -722 4906 -722 
Q 4338 -722 3750 -684 
Q 3713 -372 3650 -128 
L 3669 -128 
Q 4294 -216 4813 -216 
Q 5381 -216 5425 384 
Q 5494 1316 5525 3834 
L 3850 3834 
Q 3578 3231 3288 2772 
Q 3119 2891 2856 3003 
z
M 856 266 
L 2263 266 
L 2263 1847 
L 856 1847 
L 856 266 
z
M 2263 3816 
L 856 3816 
L 856 2297 
L 2263 2297 
L 2263 3816 
z
M 3406 2578 
L 3788 2859 
Q 4481 2041 4894 1441 
L 4431 1116 
Q 3988 1841 3406 2578 
z
" transform="scale(0.015625)"/>
     <path id="MicrosoftYaHei-98b" d="M 1206 1247 
L 5206 1247 
L 5206 -834 
L 4719 -834 
L 4719 -447 
L 1694 -447 
L 1694 -847 
L 1206 -847 
L 1206 1247 
z
M 3419 3722 
Q 4450 2559 6350 2034 
Q 6169 1766 6044 1547 
Q 5313 1809 4700 2153 
L 4700 1778 
L 1713 1778 
L 1713 2138 
Q 1078 1763 319 1453 
Q 188 1684 44 1884 
Q 2038 2622 2963 3722 
L 3419 3722 
z
M 4719 809 
L 1694 809 
L 1694 -9 
L 4719 -9 
L 4719 809 
z
M 1319 5353 
L 1863 5353 
Q 1734 5022 1581 4716 
L 3394 4716 
L 3394 4284 
L 1347 4284 
Q 963 3641 450 3116 
Q 275 3303 88 3472 
Q 894 4259 1319 5353 
z
M 4006 5353 
L 4544 5353 
Q 4444 5019 4319 4716 
L 6275 4716 
L 6275 4284 
L 4113 4284 
Q 3916 3913 3669 3591 
Q 3481 3753 3263 3909 
Q 3800 4584 4006 5353 
z
M 3206 3272 
Q 2606 2678 1800 2191 
L 4634 2191 
Q 3809 2659 3206 3272 
z
M 4969 3159 
Q 4731 3553 4406 3966 
L 4788 4203 
Q 5131 3803 5381 3416 
L 4969 3159 
z
M 2013 3234 
Q 1800 3597 1513 3984 
L 1869 4203 
Q 2163 3847 2406 3497 
L 2013 3234 
z
" transform="scale(0.015625)"/>
     <path id="MicrosoftYaHei-804" d="M 419 1822 
Q 1925 1994 2766 2219 
Q 2016 2419 1250 2609 
Q 1506 2884 1738 3153 
L 250 3153 
L 250 3566 
L 2075 3566 
Q 2313 3866 2513 4159 
L 3019 4016 
Q 2850 3791 2659 3566 
L 6150 3566 
L 6150 3153 
L 4806 3153 
Q 4509 2625 4003 2297 
Q 4897 2063 5681 1847 
L 5481 1428 
Q 4491 1741 3466 2025 
Q 2516 1650 600 1409 
Q 525 1609 419 1822 
z
M 6319 -197 
Q 6106 -447 5956 -666 
Q 4306 -172 3425 544 
L 3425 -866 
L 2975 -866 
L 2975 534 
Q 2028 -134 456 -672 
Q 313 -491 94 -247 
Q 1706 156 2647 747 
L 238 747 
L 238 1166 
L 2975 1166 
L 2975 1678 
L 3425 1678 
L 3425 1166 
L 6200 1166 
L 6200 747 
L 3766 747 
Q 4753 81 6319 -197 
z
M 419 4734 
L 3038 4734 
Q 2919 4950 2763 5178 
L 3206 5378 
Q 3409 5059 3591 4734 
L 5975 4734 
L 5975 3791 
L 5500 3791 
L 5500 4322 
L 894 4322 
L 894 3791 
L 419 3791 
L 419 4734 
z
M 1963 2809 
Q 2725 2622 3425 2444 
Q 3975 2688 4284 3153 
L 2294 3153 
Q 2134 2981 1963 2809 
z
" transform="scale(0.015625)"/>
    </defs>
    <use xlink:href="#MicrosoftYaHei-31"/>
    <use xlink:href="#MicrosoftYaHei-4b" transform="translate(62.0625 0)"/>
    <use xlink:href="#MicrosoftYaHei-52" transform="translate(118.796875 0)"/>
    <use xlink:href="#MicrosoftYaHei-52" transform="translate(145.40625 0)"/>
    <use xlink:href="#MicrosoftYaHei-5f" transform="translate(172.015625 0)"/>
    <use xlink:href="#MicrosoftYaHei-3" transform="translate(224.953125 0)"/>
    <use xlink:href="#MicrosoftYaHei-5cd" transform="translate(254.546875 0)"/>
    <use xlink:href="#MicrosoftYaHei-b78" transform="translate(354.546875 0)"/>
    <use xlink:href="#MicrosoftYaHei-8e4" transform="translate(454.546875 0)"/>
    <use xlink:href="#MicrosoftYaHei-7bc" transform="translate(554.546875 0)"/>
    <use xlink:href="#MicrosoftYaHei-9bf" transform="translate(654.546875 0)"/>
    <use xlink:href="#MicrosoftYaHei-379" transform="translate(754.546875 0)"/>
    <use xlink:href="#MicrosoftYaHei-414" transform="translate(854.546875 0)"/>
    <use xlink:href="#MicrosoftYaHei-417" transform="translate(954.546875 0)"/>
    <use xlink:href="#MicrosoftYaHei-54d" transform="translate(1054.546875 0)"/>
    <use xlink:href="#MicrosoftYaHei-6ac" transform="translate(1154.546875 0)"/>
    <use xlink:href="#MicrosoftYaHei-9cb" transform="translate(1254.546875 0)"/>
    <use xlink:href="#MicrosoftYaHei-4df" transform="translate(1354.546875 0)"/>
    <use xlink:href="#MicrosoftYaHei-790" transform="translate(1454.546875 0)"/>
    <use xlink:href="#MicrosoftYaHei-567" transform="translate(1554.546875 0)"/>
    <use xlink:href="#MicrosoftYaHei-92c" transform="translate(1654.546875 0)"/>
    <use xlink:href="#MicrosoftYaHei-546" transform="translate(1754.546875 0)"/>
    <use xlink:href="#MicrosoftYaHei-919" transform="translate(1854.546875 0)"/>
    <use xlink:href="#MicrosoftYaHei-98b" transform="translate(1954.546875 0)"/>
    <use xlink:href="#MicrosoftYaHei-804" transform="translate(2054.546875 0)"/>
   </g>
  </g>
 </g>
 <defs>
  <clipPath id="p20c3f0c639">
   <rect x="88.0704" y="45.216" width="243.490909" height="182.952"/>
  </clipPath>
  <clipPath id="pdedbec1a16">
   <rect x="380.259491" y="45.216" width="243.490909" height="182.952"/>
  </clipPath>
 </defs>
</svg>
